# xmcd CD database file
#
# Track frame offsets:
#	150
#	14512
#	53332
#	78025
#	87857
#	102005
#	116977
#	138315
#	256980
#	296192
#
# Disc length: 4442 seconds
#
# Revision: 0
# Processed by: cddbd v1.5.1PL0 Copyright (c) Steve Scherf et al.
# Submitted via: CDex 1.51
#
DISCID=7e11580a
DTITLE=Uli Jon Roth - Live In Europe
DYEAR=1900
DGENRE=Hard Rock
TTITLE0=Antonio Vivaldi Vier Jahres Zeitfn 3 Sat
TTITLE1=Windows Of Tiu War
TTITLE2=Starlight
TTITLE3=Ausschanitte Nus
TTITLE4=Confuta Is
TTITLE5=Lacrymosa
TTITLE6=We Can Change The World
TTITLE7=Symphony No.1(Ausztige) Europa Ex Favilla
TTITLE8=Beethoven/Roth Symponie(Allegro Con Brio)
TTITLE9=Improvisation
EXTD=
EXTT0=
EXTT1=
EXTT2=
EXTT3=
EXTT4=
EXTT5=
EXTT6=
EXTT7=
EXTT8=
EXTT9=
PLAYORDER=
